<?xml version="1.0" standalone="no"?>
<!DOCTYPE svg PUBLIC "-//W3C//DTD SVG 20010904//EN"
 "http://www.w3.org/TR/2001/REC-SVG-20010904/DTD/svg10.dtd">
<svg version="1.0" xmlns="http://www.w3.org/2000/svg"
 width="344.000000pt" height="344.000000pt" viewBox="0 0 344.000000 344.000000"
 preserveAspectRatio="xMidYMid meet">
<metadata>
Created by potrace 1.14, written by Peter Selinger 2001-2017
</metadata>
<g transform="translate(0.000000,344.000000) scale(0.100000,-0.100000)"
fill="#000000" stroke="none">
<path d="M422 2368 l3 -223 25 -2 c14 0 99 -4 190 -8 91 -4 167 -8 169 -10 4
-4 3 -164 -5 -785 -2 -206 -4 -382 -4 -390 0 -8 1 -35 1 -59 l0 -44 92 7 c51
4 110 9 132 11 22 3 69 7 105 10 141 10 204 15 207 18 1 2 6 68 9 148 3 79 7
180 9 224 3 44 7 141 10 215 5 139 10 254 20 494 4 77 8 143 10 146 2 4 46 8
97 9 92 3 228 8 259 10 8 1 15 11 16 24 1 29 13 263 18 355 l4 72 -685 0 -684
0 2 -222z"/>
<path d="M1838 2584 c-2 -5 -4 -396 -4 -869 l1 -859 590 0 590 0 -2 80 c-1 43
-5 117 -8 164 -3 47 -7 104 -8 127 -1 23 -6 45 -10 49 -4 5 -38 9 -75 10 -37
2 -119 6 -182 9 -111 6 -272 13 -336 14 -31 1 -32 3 -36 49 -2 26 -1 48 2 50
4 1 4 22 1 45 -4 23 -4 56 -1 72 l5 30 95 -2 c52 -1 140 -3 195 -5 l100 -3 0
205 0 204 -40 3 c-124 8 -189 11 -265 12 l-86 1 1 88 0 87 297 0 c163 0 299 2
301 5 3 3 9 86 12 185 4 99 7 193 8 210 l2 29 -105 4 c-274 9 -1038 13 -1042
6z"/>
</g>
</svg>
